# xmcd
# Track frame offsets:
# 150
# 19825
# 39767
# 56660
# 72550
# 93345
# 112525
# 129865
# 146540
# 169957
# 187015
# 202260
#
# Disc length: 2918 seconds
# Revision: 0
# Processed by: cddbd v1.5.1PL0 Copyright (c) Steve Scherf et al.
# Submitted via: VisiTrax 2.9.7.197 - For more info visit www.synapsa.com
#
DISCID=a50b640c
DTITLE=Red Not Blue - Red Not Blue
DYEAR=1900
DGENRE=
TTITLE0=Blow Wednesday
TTITLE1=Winterland
TTITLE2=Blame It On The Moon
TTITLE3=Give All
TTITLE4=Hunger
TTITLE5=Colour Blind
TTITLE6=Billy
TTITLE7=Travelling At Night
TTITLE8=Fall
TTITLE9=Taking in Water
TTITLE10=Call Me
TTITLE11=Rest Of The World
EXTD=
EXTT0=
EXTT1=
EXTT2=
EXTT3=
EXTT4=
EXTT5=
EXTT6=
EXTT7=
EXTT8=
EXTT9=
EXTT10=
EXTT11=
PLAYORDER=
